<?xml version="1.0" encoding="UTF-8"?>
<svg id="Capa_1" data-name="Capa 1" xmlns="http://www.w3.org/2000/svg" viewBox="0 0 473.6 412.87">
  <path d="M5.74,188.92c4.3,7.61,10.39,7.66,14.08,7.7,19.34-.02,90.28-.01,169.87,0,51.27,0,105.65.01,152.27.01,55.28,0,99.63,0,114.82-.04,4.52-.05,8.58-2.26,11.44-6.23,6.82-9.46,6.24-27.66,3.2-37.23-2.48-8.32-8.66-13.31-15.84-12.8-6.63-.01-20-.01-37.98-.01H65.92c-1.87,0-2.7-1.3-2.98-1.86-.27-.56-.78-2.01.36-3.47,4.49-5.78,9.67-12.48,14.95-19.29,13.5-17.43,27.45-35.45,32.02-41.17,1.52-1.73,3.01-3.56,4.44-5.32,5.25-6.46,10.21-12.56,15.42-12.63,33.15-.25,101.22-.19,155.9-.14,36.1.03,67.28.06,81.81,0,3.68-.07,8.71-.17,13.07-4.05l.23-.21c7.94-7.8,9.4-25.64,5.79-37.41-2.45-7.98-7.16-12.99-13.27-14.11l-.88-.1c-16.09-.69-41.56-.57-71.04-.44-21.67.1-46.23.21-72.03.04-15.62.07-31.04.03-45.96-.02-23.58-.07-45.86-.14-67.49.25h-.25c-9.39.55-14.94,6.99-20.32,13.21l-.11.13c-11.64,14.25-30.34,37.92-48.43,60.81-11.93,15.1-23.2,29.36-31.53,39.76-.55.71-1.09,1.41-1.64,2.11-3.61,4.6-7.34,9.36-9.87,15.61l-.08.2c-5.77,15.76-5.18,40.84,1.32,55.9l.4.8Z"/>
  <path d="M467.85,223.96c-4.3-7.62-10.39-7.67-14.08-7.7-19.41.02-89.55.01-170.77,0-111.69-.01-238.27-.03-266.19.03-4.52.05-8.58,2.26-11.44,6.22-6.82,9.46-6.24,27.66-3.2,37.23,2.48,8.32,8.68,13.3,15.84,12.8,6.64.02,20.03.01,38.03.01h351.4c1.93,0,2.8,1.34,3.09,1.92.28.58.81,2.08-.37,3.6-4.45,5.74-9.59,12.37-14.81,19.12-13.49,17.42-27.44,35.43-32.01,41.15-1.52,1.73-3.01,3.56-4.44,5.32-5.25,6.46-10.21,12.56-15.42,12.63-33.15.25-101.22.19-155.91.14-36.1-.03-67.27-.06-81.8,0-3.68.07-8.71.17-13.07,4.05l-.23.22c-7.94,7.8-9.4,25.64-5.78,37.42,2.45,7.98,7.16,12.99,13.26,14.11l.88.1c9.83.42,23.16.54,38.78.54,9.94,0,20.8-.05,32.27-.1,21.66-.1,46.22-.21,72.03-.04,15.61-.07,31.03-.03,45.94.02,23.59.07,45.87.14,67.5-.25h.26c9.39-.55,14.94-6.99,20.31-13.21l.11-.13c11.64-14.25,30.35-37.92,48.44-60.81,11.93-15.1,23.2-29.36,31.52-39.75.54-.71,1.09-1.41,1.64-2.1,3.61-4.6,7.34-9.36,9.88-15.61l.08-.21c5.77-15.76,5.18-40.84-1.32-55.9l-.4-.8Z"/>
</svg>